<?xml version="1.0" encoding="utf-8"?>
<svg version="1.1" id="Layer_1" xmlns="http://www.w3.org/2000/svg" xmlns:xlink="http://www.w3.org/1999/xlink" x="0px" y="0px"
	 viewBox="0 0 887.7 619.9" style="enable-background:new 0 0 887.7 619.9;" xml:space="preserve">
<style type="text/css">
	.st0{display:none;fill:#333333;}
	.st1{fill:#231F20;fill-opacity:0;stroke:#231F20;stroke-width:12.96;stroke-miterlimit:17.28;}
	.st2{fill:#231F20;}
	.st3{fill:#FFFFFF;}
</style>
<rect x="-290.6" y="-230.1" class="st0" width="1920" height="1080"/>
<g transform="translate(68.76099395751953,54.75518798828125)">
	<polyline class="st1" points="812.4,203.3 812.4,-48.3 560.8,-48.3 	"/>
	<polyline class="st1" points="189.3,558.6 -62.3,558.6 -62.3,307 	"/>
	<g transform="translate(12,12)">
		<g transform="translate(0.8440017700195312,0)">
			<g transform="scale(1)">
				<g>
					<path class="st2" d="M59.8,76.2H-3.7c-2.8,0-5.1-2.4-5.1-5.2V-8.4h-10.8V71c0,8.8,7.1,15.9,15.9,15.9h63.5
						c8.7,0,15.9-7.1,15.9-15.9V-8.4H65V71C64.9,73.9,62.6,76.2,59.8,76.2z M90.3,87h95.3V76.3h-84.5V-8.4H90.3V87z M188.6-8.3V2.4
						h42.3V87h10.7V2.4h42.2V-8.3H188.6z M293.9,87h10.7V-8.3h-10.7V87z M431.4-8.3h-14.7l-39.6,47.1L337.5-8.3h-14.7V87h10.7V3.9
						L377,55.7l43.5-51.8V87h10.7V-8.3H431.4z M446,7.6V87h10.7V52.2h73.9V87h10.7V7.6c0-8.8-7.1-15.9-15.9-15.9h-63.5
						C453.1-8.3,446-1.2,446,7.6z M461.9,2.4h63.5c2.8,0,5.2,2.4,5.2,5.2v33.9h-73.9V7.6C456.7,4.7,459.1,2.4,461.9,2.4z M551.6-8.3
						V2.4h42.3V87h10.8V2.4h42.2V-8.3H551.6z M744.1-8.3h-87V87h87V76.3h-76.3V44.8h61.3V33.9h-61.3V2.4H744V-8.3H744.1z"/>
				</g>
				<g transform="translate(0,25.09000015258789)">
					<g transform="scale(1.06129)">
						<path class="st2" d="M-18.5,120.2v248.4H15V259.7h231.1v108.9h33.5V120.2c0-27.4-22.3-49.7-49.7-49.7H31.1
							C3.7,70.5-18.5,92.8-18.5,120.2z M31.1,104h198.8c8.7,0,16.2,7.4,16.2,16.2v106H15v-106C15,111.4,22.4,104,31.1,104z
							 M573.1,70.5H374.4c-27.4,0-49.7,22.3-49.7,49.7v66.7c0,27.4,22.3,49.7,49.7,49.7h198.7c8.8,0,16.2,7,16.2,15.8v66.7
							c0,8.8-7.4,16.2-16.2,16.2H374.4c-8.8,0-16.2-7.4-16.2-16.2v-11.6h-33.5v11.6c0,27.4,22.3,49.7,49.7,49.7h198.7
							c27.4,0,49.7-22.3,49.7-49.7v-66.7c0-27.4-22.3-49.7-49.7-49.7H374.4c-8.8,0-16.2-7-16.2-15.8v-66.7c0-8.8,7.4-16.2,16.2-16.2
							h198.7c8.8,0,16.2,7.4,16.2,16.2v11.6h33.6v-11.6C622.8,92.8,600.5,70.5,573.1,70.5z M667.6,368.6h33.5V70.5h-33.5V368.6z"/>
					</g>
				</g>
			</g>
		</g>
		<g transform="translate(0,104.32962799072266)">
			<g>
				<g>
					<rect x="-22.5" y="337.9" class="st2" width="771" height="52.5"/>
				</g>
				<g transform="translate(11.619,2)">
					<g transform="scale(1, 1)">
						<g transform="scale(1)">
							<path class="st3" d="M16.1,345.2v34h19.2v-3.7H20.4v-30.3H16.1z M152.9,379.8c2.2,0,4.1-0.4,5.9-1.2c1.8-0.9,3.3-2,4.6-3.6
								c1.3-1.5,2.3-3.4,3-5.6c0.7-2.2,1-4.7,1-7.4s-0.3-5.1-1-7.3s-1.7-4-3-5.5s-2.8-2.7-4.6-3.5s-3.7-1.3-5.9-1.3
								c-2.1,0-4.1,0.4-5.9,1.2c-1.8,0.8-3.3,1.9-4.6,3.5c-1.3,1.5-2.3,3.3-3,5.5s-1.1,4.6-1.1,7.3s0.3,5.2,1.1,7.4
								c0.7,2.2,1.7,4.1,3,5.6c1.3,1.6,2.8,2.7,4.6,3.6C148.8,379.4,150.8,379.8,152.9,379.8z M152.9,376c-1.5,0-2.9-0.3-4.1-1
								c-1.3-0.6-2.3-1.6-3.2-2.8c-0.9-1.3-1.6-2.7-2.1-4.4s-0.7-3.7-0.7-5.8s0.3-4,0.7-5.7c0.5-1.7,1.2-3.2,2.1-4.3
								c0.9-1.2,1.9-2.1,3.2-2.7c1.2-0.6,2.6-1,4.1-1s2.9,0.3,4.1,1c1.2,0.6,2.2,1.6,3.2,2.7c0.9,1.2,1.6,2.6,2,4.3
								c0.5,1.7,0.7,3.6,0.7,5.7c0,2.1-0.3,4.1-0.7,5.8c-0.5,1.7-1.2,3.2-2,4.4c-0.9,1.2-1.9,2.2-3.2,2.8
								C155.8,375.7,154.4,376,152.9,376z M289.1,365.3h-10.2l1.6-5.2c0.6-1.9,1.2-3.8,1.8-5.7s1.1-3.8,1.6-5.8h0.2
								c0.6,2,1.1,3.9,1.6,5.8c0.6,1.9,1.2,3.8,1.8,5.7L289.1,365.3z M290.2,368.8l3.2,10.4h4.6l-11.5-34h-4.9l-11.5,34h4.4
								l3.3-10.4H290.2z M403.2,345.2v34h8.7c2.5,0,4.8-0.4,6.8-1.2c1.9-0.8,3.6-1.9,5-3.4c1.3-1.5,2.4-3.3,3.1-5.4
								c0.7-2.1,1-4.5,1-7.2c0-5.4-1.4-9.6-4.1-12.5c-2.7-2.9-6.7-4.4-12-4.4h-8.5V345.2z M411.4,375.6h-3.9v-27h3.9
								c4,0,7,1.2,8.9,3.5c2,2.2,3,5.6,3,9.9s-1,7.6-3,10.1C418.4,374.5,415.4,375.6,411.4,375.6z M535.5,345.2v34h20.1v-3.7h-15.8
								v-12.4h12.9v-3.7h-12.9v-10.7h15.3v-3.6h-19.6V345.2z M667.5,361.3v-12.7h5.7c2.6,0,4.7,0.5,6.1,1.3c1.4,0.9,2.1,2.5,2.1,4.8
								c0,2.2-0.7,3.8-2.1,4.9c-1.4,1.1-3.5,1.6-6.1,1.6h-5.7V361.3z M681.9,379.2h4.9l-8.6-14.8c2.3-0.6,4.1-1.7,5.5-3.3
								s2.1-3.7,2.1-6.4c0-1.8-0.3-3.3-0.9-4.5s-1.4-2.2-2.5-2.9c-1.1-0.8-2.3-1.3-3.8-1.6s-3.1-0.5-4.8-0.5h-10.6v34h4.3v-14.3h6.1
								L681.9,379.2z"/>
						</g>
					</g>
				</g>
			</g>
		</g>
	</g>
</g>
</svg>
