<?xml version="1.0" encoding="utf-8"?>
<!-- Generator: Adobe Illustrator 28.1.0, SVG Export Plug-In . SVG Version: 6.00 Build 0)  -->
<svg version="1.1" id="Layer_1" xmlns="http://www.w3.org/2000/svg" xmlns:xlink="http://www.w3.org/1999/xlink" x="0px" y="0px"
	 viewBox="0 0 887.7 887.7" style="enable-background:new 0 0 887.7 887.7;" xml:space="preserve">
<style type="text/css">
	.st0{display:none;fill:#333333;}
	.st1{fill:#231F20;fill-opacity:0;stroke:#231F20;stroke-width:12.96;stroke-miterlimit:17.28;}
	.st2{fill:#231F20;}
</style>
<rect x="-290.6" y="-96.2" class="st0" width="1920" height="1080"/>
<polyline class="st1" points="881.2,259 881.2,7.4 629.6,7.4 "/>
<polyline class="st1" points="258.1,881.3 6.5,881.3 6.5,629.7 "/>
<g transform="translate(0.8440017700195312,0)">
	<g transform="scale(1)">
		<g>
			<path class="st2" d="M140.6,276.9H77.1c-2.8,0-5.1-2.4-5.1-5.2v-79.4H61.2v79.4c0,8.8,7.1,15.9,15.9,15.9h63.5
				c8.7,0,15.9-7.1,15.9-15.9v-79.4h-10.7v79.4C145.7,274.6,143.4,276.9,140.6,276.9z M171.1,287.7h95.3V277h-84.5v-84.7h-10.8
				L171.1,287.7L171.1,287.7z M269.4,192.4v10.7h42.3v84.6h10.7v-84.6h42.2v-10.7L269.4,192.4L269.4,192.4z M374.7,287.7h10.7v-95.3
				h-10.7V287.7z M512.2,192.4h-14.7l-39.6,47.1l-39.6-47.1h-14.7v95.3h10.7v-83.1l43.5,51.8l43.5-51.8v83.1H512v-95.3L512.2,192.4
				L512.2,192.4z M526.8,208.3v79.4h10.7v-34.8h73.9v34.8h10.7v-79.4c0-8.8-7.1-15.9-15.9-15.9h-63.5
				C533.9,192.4,526.8,199.5,526.8,208.3z M542.7,203.1h63.5c2.8,0,5.2,2.4,5.2,5.2v33.9h-73.9v-33.9
				C537.5,205.4,539.9,203.1,542.7,203.1z M632.4,192.4v10.7h42.3v84.6h10.8v-84.6h42.2v-10.7L632.4,192.4L632.4,192.4z
				 M824.9,192.4h-87v95.3h87V277h-76.3v-31.5h61.3v-10.9h-61.3v-31.5h76.2L824.9,192.4L824.9,192.4z"/>
		</g>
		<g transform="translate(0,25.09000015258789)">
			<g transform="scale(1.06129)">
				<path class="st2" d="M57.6,309.3v248.4h33.5V448.8h231.1v108.9h33.5V309.3c0-27.4-22.3-49.7-49.7-49.7H107.2
					C79.8,259.6,57.6,281.9,57.6,309.3z M107.2,293.1H306c8.7,0,16.2,7.4,16.2,16.2v106H91.1v-106
					C91.1,300.5,98.5,293.1,107.2,293.1z M649.2,259.6H450.5c-27.4,0-49.7,22.3-49.7,49.7V376c0,27.4,22.3,49.7,49.7,49.7h198.7
					c8.8,0,16.2,7,16.2,15.8v66.7c0,8.8-7.4,16.2-16.2,16.2H450.5c-8.8,0-16.2-7.4-16.2-16.2v-11.6h-33.5v11.6
					c0,27.4,22.3,49.7,49.7,49.7h198.7c27.4,0,49.7-22.3,49.7-49.7v-66.7c0-27.4-22.3-49.7-49.7-49.7H450.5c-8.8,0-16.2-7-16.2-15.8
					v-66.7c0-8.8,7.4-16.2,16.2-16.2h198.7c8.8,0,16.2,7.4,16.2,16.2v11.6H699v-11.6C698.9,281.9,676.6,259.6,649.2,259.6z
					 M743.7,557.7h33.5V259.6h-33.5V557.7z"/>
			</g>
		</g>
	</g>
</g>
<g id="R" transform="translate(11.619,2)">
	<g transform="scale(1, 1)">
		<g transform="scale(1)">
			<path class="st2" d="M759.3,686v-29.2h13.1c6,0,10.8,1.1,14,3c3.2,2.1,4.8,5.7,4.8,11c0,5.1-1.6,8.7-4.8,11.3
				c-3.2,2.5-8,3.7-14,3.7h-13.1V686z M792.4,727h11.3l-19.8-34c5.3-1.4,9.4-3.9,12.6-7.6c3.2-3.7,4.8-8.5,4.8-14.7
				c0-4.1-0.7-7.6-2.1-10.3c-1.4-2.8-3.2-5.1-5.7-6.7c-2.5-1.8-5.3-3-8.7-3.7s-7.1-1.1-11-1.1h-24.3V727h9.9v-32.8h14L792.4,727z"/>
		</g>
	</g>
</g>
<g id="E" transform="translate(11.619,2)">
	<g transform="scale(1, 1)">
		<g transform="scale(1)">
			<path class="st2" d="M619.1,649v78.1h46.2v-8.5H629v-28.5h29.6v-8.5H629V657h35.1v-8.2h-45V649z"/>
		</g>
	</g>
</g>
<g id="D" transform="translate(11.619,2)">
	<g transform="scale(1, 1)">
		<g transform="scale(1)">
			<path class="st2" d="M474.2,649v78.1h20c5.7,0,11-0.9,15.6-2.8c4.4-1.8,8.3-4.4,11.5-7.8c3-3.4,5.5-7.6,7.1-12.4
				s2.3-10.3,2.3-16.5c0-12.4-3.2-22.1-9.4-28.7c-6.2-6.7-15.4-10.1-27.6-10.1L474.2,649L474.2,649z M493,718.9h-9v-62h9
				c9.2,0,16.1,2.8,20.4,8c4.6,5.1,6.9,12.9,6.9,22.7c0,9.9-2.3,17.5-6.9,23.2C509.1,716.3,502.2,718.9,493,718.9z"/>
		</g>
	</g>
</g>
<g id="A" transform="translate(11.619,2)">
	<g transform="scale(1, 1)">
		<g transform="scale(1)">
			<path class="st2" d="M368.1,695.2h-23.4l3.7-11.9c1.4-4.4,2.8-8.7,4.1-13.1c1.4-4.4,2.5-8.7,3.7-13.3h0.5c1.4,4.6,2.5,9,3.7,13.3
				c1.4,4.4,2.8,8.7,4.1,13.1L368.1,695.2z M370.6,703.3l7.4,23.9h10.6l-26.4-78.1h-11.3l-26.4,78.1h10.1l7.6-23.9H370.6z"/>
		</g>
	</g>
</g>
<g id="O" transform="translate(11.619,2)">
	<g transform="scale(1, 1)">
		<g transform="scale(1)">
			<path class="st2" d="M210.3,728.7c5.1,0,9.4-0.9,13.6-2.8c4.1-2.1,7.6-4.6,10.6-8.3c3-3.4,5.3-7.8,6.9-12.9
				c1.6-5.1,2.3-10.8,2.3-17s-0.7-11.7-2.3-16.8s-3.9-9.2-6.9-12.6c-3-3.4-6.4-6.2-10.6-8c-4.2-1.8-8.5-3-13.6-3
				c-4.8,0-9.4,0.9-13.6,2.8c-4.1,1.8-7.6,4.4-10.6,8c-3,3.4-5.3,7.6-6.9,12.6c-1.6,5.1-2.5,10.6-2.5,16.8s0.7,11.9,2.5,17
				c1.6,5.1,3.9,9.4,6.9,12.9c3,3.7,6.4,6.2,10.6,8.3C200.8,727.8,205.4,728.7,210.3,728.7z M210.3,720c-3.4,0-6.7-0.7-9.4-2.3
				c-3-1.4-5.3-3.7-7.4-6.4c-2.1-3-3.7-6.2-4.8-10.1c-1.1-3.9-1.6-8.5-1.6-13.3s0.7-9.2,1.6-13.1c1.1-3.9,2.8-7.4,4.8-9.9
				c2.1-2.8,4.4-4.8,7.4-6.2c2.8-1.4,6-2.3,9.4-2.3s6.7,0.7,9.4,2.3c2.8,1.4,5.1,3.7,7.4,6.2c2.1,2.8,3.7,6,4.6,9.9
				c1.1,3.9,1.6,8.3,1.6,13.1s-0.7,9.4-1.6,13.3c-1.1,3.9-2.8,7.4-4.6,10.1c-2.1,2.8-4.4,5.1-7.4,6.4
				C216.9,719.3,213.7,720,210.3,720z"/>
		</g>
	</g>
</g>
<g id="L" transform="translate(11.619,2)">
	<g transform="scale(1, 1)">
		<g transform="scale(1)">
			<path class="st2" d="M61,649v78h44.2v-8.5H70.9V649H61z"/>
		</g>
	</g>
</g>
</svg>
